<svg xmlns="http://www.w3.org/2000/svg" xmlns:xlink="http://www.w3.org/1999/xlink" width="6250" height="2084" viewBox="0 0 6250 2084"><defs><style>.a{clip-path:url(#d);}.b{fill:url(#b);}.c,.d,.e{fill:#7de8b7;}.d{font-size:75px;letter-spacing:0.015em;opacity:0.797;}.d,.k,.l{font-family:Poppins-SemiBold, Poppins;font-weight:600;}.e{stroke:rgba(0,0,0,0);stroke-miterlimit:10;}.f,.g{fill:#566375;}.f{opacity:0.15;}.g{opacity:0.2;}.h{opacity:0.156;}.i,.j{fill:none;}.i{stroke:#fff;stroke-linecap:round;stroke-linejoin:round;stroke-width:5px;}.k,.l{fill:#fff;font-size:110px;letter-spacing:0.025em;}.l{opacity:0.603;}.m{fill:url(#a);}</style><linearGradient id="a" y1="1" x2="1" gradientUnits="objectBoundingBox"><stop offset="0" stop-color="#566375"/><stop offset="1" stop-color="#636f81"/></linearGradient><linearGradient id="b" y1="1" x2="1" gradientUnits="objectBoundingBox"><stop offset="0" stop-color="#313943"/><stop offset="1" stop-color="#566375"/></linearGradient><clipPath id="d"><rect width="6250" height="2084"/></clipPath></defs><g id="c" class="a"><rect class="m" width="6250" height="2084"/><rect class="b" width="6250" height="2084"/><g transform="translate(2639.601 208.541)"><rect class="c" width="471.517" height="87.305" rx="24.32" transform="translate(356.104 400.262) rotate(-60)"/><path class="c" d="M805.159,315.3l-.144.144a43.069,43.069,0,0,0-60.692,60.566l-.144.144,134.2,134.465,3.589,3.7,12.562,12.1,18.179,17.443-4.02-2.692-16.923-11.288-19.74-13.136L742.708,646.255h0a5.406,5.406,0,0,0-.467.431A43.066,43.066,0,1,0,803.531,707.2l0,0h0L939.086,571.62l.305.287,61.015-60.835Z" transform="translate(22.916 -294.811)"/><path class="c" d="M568.685,645.892a5.4,5.4,0,0,1-.467-.431h0L438.15,515.393l-16.366,10.929-20.96,13.98,18.2-17.425L432.6,509.848l-.161-.161,134.2-134.465h0a43.069,43.069,0,0,0-60.871-60.745h0l-1.113,1.131h0L310.36,510.1l61.015,60.835.305-.287,135.65,135.7h0a43.069,43.069,0,1,0,61.284-60.53Z" transform="translate(-310.36 -296.44)"/></g><text class="d" transform="translate(2671 1713)"><tspan x="0" y="0">PROGRESSIVE WEB APPS</tspan></text><text class="d" transform="translate(2640 1858)"><tspan x="0" y="0">SEO OPTIMIZED WEB APPS</tspan></text><g transform="translate(-133.756 23.455)"><path class="e" d="M491.5,188.545a95.181,95.181,0,0,1-18.216-1.712A83.474,83.474,0,0,1,441.1,173.138a96.852,96.852,0,0,1-13.967-11.983,100.811,100.811,0,0,1-11.6-14.349,87.876,87.876,0,0,1-13.259-32.619,99.08,99.08,0,0,1-1.658-18.271A105.929,105.929,0,0,1,402.486,75.9a97.188,97.188,0,0,1,5.6-18.706,99.137,99.137,0,0,1,8.715-16.59,83.219,83.219,0,0,1,11.2-13.664A93.51,93.51,0,0,1,441.392,16.05a95.058,95.058,0,0,1,15.251-8.279,86.263,86.263,0,0,1,16.434-5.229A82.926,82.926,0,0,1,490.01.8a94.049,94.049,0,0,1,17.819,1.665,85.6,85.6,0,0,1,16.605,5,87.947,87.947,0,0,1,15.391,8.326A101.415,101.415,0,0,1,554,27.442a94.478,94.478,0,0,1,11.874,14.123,85.822,85.822,0,0,1,8.482,15.726,88.639,88.639,0,0,1,5.089,17.329,103.236,103.236,0,0,1,1.7,18.932,109.258,109.258,0,0,1-1.619,19,95.019,95.019,0,0,1-4.855,17.539,91.94,91.94,0,0,1-8.092,16.076,99.643,99.643,0,0,1-11.329,14.613,94.039,94.039,0,0,1-13.695,12.146,80.912,80.912,0,0,1-31.872,13.882A93.345,93.345,0,0,1,491.5,188.545Zm-.747-143.673a41.992,41.992,0,0,0-16.807,3.455,50.647,50.647,0,0,0-15.064,10.364A45.3,45.3,0,0,0,448.24,74.6a54.543,54.543,0,0,0-3.548,20.076,54.122,54.122,0,0,0,3.579,20.075,45.272,45.272,0,0,0,10.738,15.9,51.274,51.274,0,0,0,15.158,10.365,42.215,42.215,0,0,0,16.839,3.455,43,43,0,0,0,16.807-3.361,50.712,50.712,0,0,0,15.064-10.085,43.444,43.444,0,0,0,10.644-15.749,55.514,55.514,0,0,0,3.549-20.356,55.579,55.579,0,0,0-3.58-20.418,44.471,44.471,0,0,0-10.738-15.936A51.309,51.309,0,0,0,507.6,48.3,42.541,42.541,0,0,0,490.757,44.871ZM91.361,188.545a95.186,95.186,0,0,1-18.216-1.712,83.473,83.473,0,0,1-32.183-13.695,96.841,96.841,0,0,1-13.967-11.983,100.821,100.821,0,0,1-11.6-14.349,87.877,87.877,0,0,1-13.26-32.619A99.079,99.079,0,0,1,.475,95.917,105.908,105.908,0,0,1,2.343,75.9,97.157,97.157,0,0,1,7.946,57.2a99.136,99.136,0,0,1,8.715-16.59,83.22,83.22,0,0,1,11.2-13.664A93.5,93.5,0,0,1,41.25,16.05,95.06,95.06,0,0,1,56.5,7.771,86.249,86.249,0,0,1,72.935,2.542,82.931,82.931,0,0,1,89.867.8a91.851,91.851,0,0,1,24.017,3.1l-49,49.579a57.365,57.365,0,0,0-6.139,5.212A45.3,45.3,0,0,0,48.1,74.6a54.543,54.543,0,0,0-3.548,20.076,54.117,54.117,0,0,0,3.58,20.075,45.27,45.27,0,0,0,10.738,15.9A59.136,59.136,0,0,0,64,135.08l49.638,50.806A91.44,91.44,0,0,1,91.361,188.545Zm1197.192-.5a84.252,84.252,0,0,1-21.495-2.685l44.506-46.087-2.445-2.361a21.586,21.586,0,0,0,1.594-8.627,9.374,9.374,0,0,0-1.587-5.261,14.83,14.83,0,0,0-4.761-4.326,46.763,46.763,0,0,0-15.812-5.6,136.707,136.707,0,0,1-20.417-5.6,135.191,135.191,0,0,1-20.418-9.088,36.36,36.36,0,0,1-8.684-6.755,48.484,48.484,0,0,1-7.127-9.8,47.551,47.551,0,0,1-4.763-12.481,65.418,65.418,0,0,1-1.588-14.785,51.944,51.944,0,0,1,4.078-20.511,56.551,56.551,0,0,1,12.232-17.71,52.152,52.152,0,0,1,7.818-6.434l31.747,31.747a19.656,19.656,0,0,0-6.7,3.072,12.689,12.689,0,0,0-4.015,4.607,13.522,13.522,0,0,0-1.338,6.1,12.288,12.288,0,0,0,1.587,6.194,14.85,14.85,0,0,0,4.762,4.886,39.394,39.394,0,0,0,15.811,5.728,187.16,187.16,0,0,1,20.668,4.606,129.261,129.261,0,0,1,20.667,7.594,31.814,31.814,0,0,1,8.684,6.132,43.6,43.6,0,0,1,7.127,9.431,45.613,45.613,0,0,1,4.762,12.357,66.026,66.026,0,0,1,1.587,14.909,68.921,68.921,0,0,1-1.619,15.22,55.018,55.018,0,0,1-12.325,24.215,45.858,45.858,0,0,1-9.462,8.124,82.125,82.125,0,0,1-20.853,9.9A75.789,75.789,0,0,1,1288.552,188.047Zm-345.612-2.49h-98.6c-5.783,0-10.432-.8-13.82-2.365a11.6,11.6,0,0,1-6.6-7.1c-.991-2.643-1.494-6.915-1.494-12.7v-21.66h61.7v-.252h59.061a72.633,72.633,0,0,1,8.591.374,20.061,20.061,0,0,1,6.6,2.365c2.23,1.157,3.927,3.377,5.042,6.6a40.345,40.345,0,0,1,1.681,12.823c0,5.783-.775,10.433-2.3,13.82a11.416,11.416,0,0,1-6.91,6.6C953.081,185.054,948.725,185.557,942.941,185.557Zm152.139-.249h-2.49a22.735,22.735,0,0,1-11.828-3.361,21.43,21.43,0,0,1-8.342-8.839L1003.7,33.666c-2.478-5.288-3.735-9.31-3.735-11.952a12.275,12.275,0,0,1,3.673-8.341c2.437-2.644,6.144-5.2,11.018-7.594,5.452-2.809,9.683-4.234,12.574-4.234a17,17,0,0,1,6.6,1,11.64,11.64,0,0,1,4.234,3.486,47.169,47.169,0,0,1,4.109,6.6c1.235,2.388,4.46,9.341,9.586,20.667,5.114,11.3,10.685,23.489,16.559,36.229,6.033,13.089,11.646,25.278,16.682,36.229,5.2,11.316,8.178,17.725,8.84,19.049l.423-.926,8.658,20.4-5.178-28.019,45.9-100.515c1.323-3.141,2.5-5.654,3.486-7.47a16.567,16.567,0,0,1,4.98-5.042,11.264,11.264,0,0,1,5.977-1.681c4.3,0,9.238,1.424,14.691,4.234,4.874,2.4,8.581,4.951,11.018,7.594a12.275,12.275,0,0,1,3.673,8.341c0,2.643-1.257,6.664-3.736,11.952L1115,173.107a21.43,21.43,0,0,1-8.342,8.839A22.316,22.316,0,0,1,1095.08,185.307Zm-405.372,0H644.141a40.537,40.537,0,0,1-12.326-1.556c-3.139-1.033-5.359-2.6-6.6-4.668a20.566,20.566,0,0,1-2.121-5.992l18.064-31.48h30.678v-.376h18.618a44.589,44.589,0,0,0,17.057-3.33,51.8,51.8,0,0,0,15.314-9.99,44.362,44.362,0,0,0,10.831-15.034,46.343,46.343,0,0,0,3.61-18.457A47.875,47.875,0,0,0,733.75,75.9,45.442,45.442,0,0,0,723.2,60.683a49.728,49.728,0,0,0-13.072-9.2,44.955,44.955,0,0,0-14.887-4.125L718.23,7.295a87.633,87.633,0,0,1,18.633,8.575A102.078,102.078,0,0,1,753.95,29.06a94.058,94.058,0,0,1,11.983,13.757,82.007,82.007,0,0,1,13.695,32,95.228,95.228,0,0,1,1.712,18.239,98.475,98.475,0,0,1-1.673,18.309,86.717,86.717,0,0,1-13.384,32.557,99.4,99.4,0,0,1-11.711,14.248,97.466,97.466,0,0,1-14.091,11.874,84.964,84.964,0,0,1-32.432,13.57A97.327,97.327,0,0,1,689.708,185.307Zm-445.71,0c-5.783,0-10.433-.775-13.82-2.3a11.416,11.416,0,0,1-6.6-6.909c-.991-2.809-1.494-7.165-1.494-12.948V91.161h44.073v.024h31.374a21.158,21.158,0,0,0,7.407-1.37,28.835,28.835,0,0,0,7.283-4.108,17.184,17.184,0,0,0,5.416-6.848,23.767,23.767,0,0,0,1.806-9.586,23.993,23.993,0,0,0-1.806-9.618,17.611,17.611,0,0,0-5.416-6.941,28.281,28.281,0,0,0-7.345-4.2,21.572,21.572,0,0,0-7.595-1.4H266.159v.341H222.086v-22.5a72.634,72.634,0,0,1,.373-8.59,20.063,20.063,0,0,1,2.365-6.6c1.156-2.231,3.376-3.927,6.6-5.042a40.347,40.347,0,0,1,12.824-1.681h53.286a61.472,61.472,0,0,1,21.6,3.984,81.361,81.361,0,0,1,20.978,11.952,52.128,52.128,0,0,1,9.275,9.088A64.6,64.6,0,0,1,356.8,39.892a61.967,61.967,0,0,1,4.855,13.944,74.288,74.288,0,0,1,0,30.845,60.86,60.86,0,0,1-4.855,13.85,64.5,64.5,0,0,1-7.408,11.734,52.655,52.655,0,0,1-9.275,9.058,80.987,80.987,0,0,1-21.041,11.951,62.315,62.315,0,0,1-21.788,3.984H266.159V163.4a72.816,72.816,0,0,1-.374,8.59,20.052,20.052,0,0,1-2.365,6.6c-1.157,2.23-3.377,3.927-6.6,5.042A40.344,40.344,0,0,1,244,185.307Zm-114.8-5.072L94.136,144.354a42.719,42.719,0,0,0,15.015-3.9,51.563,51.563,0,0,0,13.583-9.427,43.444,43.444,0,0,0,10.644-15.749,55.514,55.514,0,0,0,3.549-20.356A55.58,55.58,0,0,0,133.348,74.5a44.473,44.473,0,0,0-10.738-15.936,52.381,52.381,0,0,0-13.426-9.485,42.4,42.4,0,0,0-14.76-4.048L129.308,9.741a90.036,90.036,0,0,1,12.706,7.672A102.925,102.925,0,0,1,153.86,27.442a94.485,94.485,0,0,1,11.874,14.123,85.837,85.837,0,0,1,8.482,15.726A88.64,88.64,0,0,1,179.3,74.619,103.237,103.237,0,0,1,181,93.551a109.261,109.261,0,0,1-1.618,19,95.025,95.025,0,0,1-4.855,17.539,91.941,91.941,0,0,1-8.092,16.076,99.644,99.644,0,0,1-11.329,14.613,94.881,94.881,0,0,1-12.343,11.151,83.022,83.022,0,0,1-13.568,8.3Zm1122.663-.7h0c-.836-.465-1.642-.951-2.4-1.444a90.105,90.105,0,0,1-11.205-7.843,40.624,40.624,0,0,1-7.221-7.594l-2.241-2.74a35.476,35.476,0,0,1-4.855-7.563,16.509,16.509,0,0,1-1.619-6.754c0-2.106.9-4.588,2.677-7.376a55.764,55.764,0,0,1,8.03-9.431,23.213,23.213,0,0,1,6.412-4.482,16.358,16.358,0,0,1,6.785-1.494c2.313,0,5.119,1.047,8.341,3.112a69.833,69.833,0,0,1,11.081,9.337,38.066,38.066,0,0,0,9.96,8.093,28.466,28.466,0,0,0,7.933,3.372l-31.682,32.808ZM622.229,144.31v-2.7h1.549l-1.547,2.7ZM866.5,117.385H822.425V72.429h61.7v-.167H915.8a72.632,72.632,0,0,1,8.59.374,20.025,20.025,0,0,1,6.6,2.365c2.23,1.156,3.927,3.377,5.042,6.6a40.347,40.347,0,0,1,1.681,12.823c0,5.783-.8,10.432-2.366,13.82a11.6,11.6,0,0,1-7.1,6.6c-2.81.991-7.167,1.494-12.947,1.494H866.5v1.049Zm454.674-62.554a18.119,18.119,0,0,1-7.2-1.8L1264.081,3.134a75.59,75.59,0,0,1,22.23-3.083,91.353,91.353,0,0,1,27.266,3.86c8.178,2.561,13.917,5.2,17.057,7.843l6.224,4.73a35.734,35.734,0,0,1,5.789,6.661,10.659,10.659,0,0,1,1.93,5.54c0,3.3-2.011,7.913-5.976,13.7a36.776,36.776,0,0,1-8.59,9.337A15.157,15.157,0,0,1,1321.171,54.832ZM866.5,47.453H822.425v-22.5a41.313,41.313,0,0,1,1.183-10.676,14.377,14.377,0,0,1,3.549-6.629A15.039,15.039,0,0,1,834,4.191a45.51,45.51,0,0,1,11.081-1.152h98.105a72.813,72.813,0,0,1,8.591.374,20.045,20.045,0,0,1,6.6,2.366c2.231,1.157,3.927,3.377,5.042,6.6A40.35,40.35,0,0,1,965.1,25.2c0,5.783-.775,10.432-2.3,13.819a11.417,11.417,0,0,1-6.91,6.6c-2.807.991-7.164,1.494-12.947,1.494H866.5v.34Zm-200.2,0H622.229V24.7a72.177,72.177,0,0,1,.374-8.715,20.176,20.176,0,0,1,2.365-6.474c1.157-2.23,3.377-3.927,6.6-5.042a40.344,40.344,0,0,1,12.823-1.681l46.066.248a95.119,95.119,0,0,1,12.378.8L678,47.112H666.3v.34Z" transform="translate(2581 709)"/></g><path class="f" d="M2039.588,646.242c166.7,155.731,379.457,188.632,563.7,318.042,182.052,127.217,335.59,348.75,269.788,513.255-65.8,162.311-350.943,267.594-559.316,353.137-206.179,87.736-335.589,157.924-533,401.392s-462.807,660.212-644.859,664.6c-179.858,2.194-276.368-405.778-405.778-704.08s-291.722-484.741-475.967-761.109S-134.068,791.007-63.879,516.832C8.5,242.658,357.253,62.8,686.262-18.357c329.009-78.962,638.278-57.028,853.231,89.929C1754.446,220.724,1872.89,492.7,2039.588,646.242Z" transform="translate(1708.512 -517.028) rotate(87)"/><path class="g" d="M1691.479,349.332c96.489,209.059,89.6,427.308,268.791,620.286,176.9,192.978,537.581,360.685,670.829,604.205,135.543,243.52,43.65,565.15-174.6,721.37s-565.15,149.328-895.969,298.656c-333.117,147.031-652.449,447.985-810.967,337.711-160.815-107.976-158.518-627.178-282.575-941.916C340.633,1674.907,87.923,1564.634-8.565,1387.738c-94.192-176.9-34.46-422.714,94.192-611.1C214.278,590.555,409.553,461.9,604.829,298.79,802.4,135.678,1002.272-57.3,1199.844-57.3,1397.417-55,1594.99,140.273,1691.479,349.332Z" transform="translate(5540.716 3148.73) rotate(-140)"/><g class="h" transform="translate(-332 -254.185)"><g transform="translate(5401.416 1201.086)"><rect class="i" width="48.402" height="71.55" rx="1" transform="translate(58.961 23.549)"/><path class="i" d="M92.252,27.8V9.95A5.95,5.95,0,0,0,86.3,4H8.95A5.95,5.95,0,0,0,3,9.95v71.4A5.95,5.95,0,0,0,8.95,87.3H62.5" transform="translate(-3 -4)"/><line class="i" x2="11.574" transform="translate(77.901 29.862)"/></g><g transform="translate(1837.187 692.378)"><path class="j" d="M0,0H140.4V140.4H0Z"/><line class="i" x2="103.432" transform="translate(19.973 112.707)"/><rect class="i" width="80.947" height="61.46" rx="1" transform="translate(28.967 34.759)"/></g><g transform="translate(6142.369 1083.629)"><path class="j" d="M0,0H140.4V140.4H0Z"/><rect class="i" width="56.963" height="97.436" rx="1" transform="translate(43.013 22.132)"/><line class="i" x2="11.992" transform="translate(65.498 28.128)"/><line class="i" y2="0.059" transform="translate(70.201 99.451)"/></g><g transform="translate(5836.499 2061.334)"><path class="j" d="M0,0H140.4V140.4H0Z"/><rect class="i" width="86.943" height="103.432" rx="1" transform="translate(25.5 16.681)"/><ellipse class="i" cx="6.746" cy="4.497" rx="6.746" ry="4.497" transform="translate(64.474 94.63)"/></g><g transform="translate(443.565 449.574)"><path class="j" d="M0,0H140.4V140.4H0Z"/><path class="i" d="M97.6,4,85.9,88.826l-35.1,11.7-35.1-11.7L4,4Z" transform="translate(19.4 19.4)"/><path class="i" d="M49.451,8H8.5l2.925,23.4h35.1L43.6,51.876,28.975,56.263,14.35,51.876l-.585-2.925" transform="translate(41.226 38.801)"/></g><g transform="translate(1671.949 1017.598)"><path class="j" d="M0,0H140.4V140.4H0Z"/><path class="i" d="M8,9,25.55,26.55,8,44.1" transform="translate(38.801 43.651)"/><line class="i" x2="13.491" transform="translate(78.307 87.138)"/><rect class="i" width="103.432" height="97.436" rx="2" transform="translate(21.345 22.681)"/></g><g transform="translate(5132.773 1436.587)"><path class="j" d="M0,0H140.4V140.4H0Z"/><path class="i" d="M5,7,34.25,36.25,5,65.5" transform="translate(24.25 33.951)"/><line class="i" x2="44.97" transform="translate(66.784 109.624)"/></g><g transform="translate(937.439 1780.53)"><path class="j" d="M0,0H140.4V140.4H0Z"/><ellipse class="i" cx="23.984" cy="22.485" rx="23.984" ry="22.485" transform="translate(46.898 47.818)"/><path class="i" d="M79.051,55.71v8.775a14.625,14.625,0,0,0,29.25,0V55.71a52.651,52.651,0,1,0-32.175,48.439" transform="translate(14.55 14.491)"/></g><g transform="translate(5508.778 798.477)"><path class="j" d="M0,0H140.4V140.4H0Z"/><line class="i" y2="34.477" transform="translate(25.212 59.526)"/><line class="i" y2="34.477" transform="translate(118.151 59.526)"/><path class="i" d="M7,33.25H65.5v46.8a5.85,5.85,0,0,1-5.85,5.85H12.85A5.85,5.85,0,0,1,7,80.051V33.25a29.25,29.25,0,1,1,58.5,0" transform="translate(33.951 19.4)"/><line class="i" x2="2.998" y2="5.996" transform="translate(47.697 20.551)"/><line class="i" x1="5.996" y2="5.996" transform="translate(86.671 20.551)"/><line class="i" y2="19.487" transform="translate(50.695 104.496)"/><line class="i" y2="19.487" transform="translate(86.671 104.496)"/></g><g transform="translate(1461.347 1358.662)"><path class="j" d="M0,0H140.4V140.4H0Z"/><path class="i" d="M28.4,7.038C10.85,7.038,5,24.588,5,39.213c0,17.55,11.7,43.876,23.4,43.876,6.365-.269,9.822-2.925,17.55-2.925,7.675,0,8.775,2.925,17.55,2.925s23.4-17.55,23.4-29.25c-.164-.058-14.461-2.358-14.625-17.55C72.165,23.594,86.41,19.007,86.9,18.738,80.916,10.01,69.637,7.254,66.426,7.038c-8.383-.649-16.556,5.85-20.475,5.85C41.972,12.888,34.835,7.038,28.4,7.038Z" transform="translate(24.25 33.913)"/><path class="i" d="M12,13.7A11.7,11.7,0,0,0,23.7,2,11.7,11.7,0,0,0,12,13.7" transform="translate(58.201 9.7)"/></g><g transform="translate(5202.975 637.026)"><path class="j" d="M0,0H140.4V140.4H0Z"/><circle class="i" cx="53.215" cy="53.215" r="53.215" transform="translate(16.701 16.738)"/><path class="i" d="M8,59.651l6.47-11.642m8.19-14.754L37.25,7" transform="translate(38.801 33.951)"/><path class="i" d="M7,14H36.25m16.965,0H65.5" transform="translate(33.951 67.901)"/><path class="i" d="M40.25,59.651,25.567,33.22m-8.7-15.661L11,7" transform="translate(53.351 33.951)"/></g><g transform="translate(5696.097 481.775)"><path class="j" d="M0,0H140.4V140.4H0Z"/><path class="i" d="M4,7.1V104.1a4.1,4.1,0,0,0,6.143,3.545l85.54-49.258a3.218,3.218,0,0,0,0-5.575L10.143,3.559A4.1,4.1,0,0,0,4,7.11Z" transform="translate(19.4 14.6)"/><line class="i" x1="61.426" y2="67.276" transform="translate(26.325 52.651)"/><line class="i" x2="61.426" y2="67.276" transform="translate(26.325 20.475)"/></g><g transform="translate(1148.042 1468.345)"><path class="j" d="M0,0H140.4V140.4H0Z"/><path class="i" d="M84.731,97.638l-70.2-8.775A11.406,11.406,0,0,1,4,77.748V23.927A11.406,11.406,0,0,1,14.53,12.812l70.2-8.775c7.02-.585,12.87,4.68,12.87,11.115V85.938c0,7.02-6.435,12.285-12.87,11.115Z" transform="translate(19.4 19.363)"/><line class="i" y2="79.448" transform="translate(71.03 31.098)"/><line class="i" x2="92.939" transform="translate(23.062 71.571)"/></g><g transform="translate(489.766 1063.629)"><path class="j" d="M0,0H140.4V140.4H0Z"/><path class="i" d="M14,3V26.4a5.85,5.85,0,0,0,5.85,5.85h23.4" transform="translate(67.901 14.55)"/><path class="i" d="M75.2,108.3H16.7A11.7,11.7,0,0,1,5,96.6V14.7A11.7,11.7,0,0,1,16.7,3H57.651L86.9,32.25V96.6A11.7,11.7,0,0,1,75.2,108.3Z" transform="translate(24.25 14.55)"/><line class="i" y1="32.978" transform="translate(53.318 69.662)"/><line class="i" y1="10.493" transform="translate(72.805 92.148)"/><line class="i" y1="19.487" transform="translate(89.295 83.154)"/></g><g transform="translate(732.368 1296.185)"><path class="j" d="M0,0H140.4V140.4H0Z"/><path class="i" d="M8,54.8,19.7,19.7,54.8,8,43.1,43.1,8,54.8" transform="translate(38.801 38.801)"/><ellipse class="i" cx="53.215" cy="51.716" rx="53.215" ry="51.716" transform="translate(15.078 16.482)"/></g><g transform="translate(802.569 622.177)"><path class="j" d="M0,0H140.4V140.4H0Z"/><path class="i" d="M97.6,4,85.9,88.826l-35.1,11.7-35.1-11.7L4,4Z" transform="translate(19.4 19.4)"/><path class="i" d="M8.5,8H49.451L23.125,31.4h23.4L43.6,51.876,28.975,56.263,14.35,51.876l-.585-2.925" transform="translate(41.226 38.801)"/></g><g transform="translate(1148.042 367.968)"><path class="j" d="M0,0H140.4V140.4H0Z"/><rect class="i" width="92.939" height="94.438" rx="1" transform="translate(22.228 21.523)"/><line class="i" x2="92.939" transform="translate(22.228 48.506)"/><line class="i" y2="26.982" transform="translate(44.713 21.523)"/></g><g transform="translate(1007.64 961.96)"><path class="j" d="M0,0H140.4V140.4H0Z"/><path class="i" d="M108.179,51.974a52.651,52.651,0,1,0-9.319,33.772" transform="translate(14.544 14.553)"/><path class="i" d="M79.095,22.892C80.324,40.4,49.646,37.008,38.653,31.585c8.143-9.36,2.352-23.623-13.3-22.529C15.142,9.77,8.227,15.825,9.064,27.788c1.638,23.342,26,36.3,60.607,28.022" transform="translate(43.628 43.635)"/><path class="i" d="M3.054,36.445C1.4,12.793,54.049-5.84,68.855,20.72" transform="translate(14.625 37.43)"/><path class="i" d="M32.543,68.257C15.033,69.485,2.345,40.615,11.675,11.23" transform="translate(41.332 54.466)"/></g><g transform="translate(6002.505 1710.329)"><path class="j" d="M0,0H140.4V140.4H0Z"/><path class="i" d="M14,3V26.4a5.85,5.85,0,0,0,5.85,5.85h23.4" transform="translate(67.901 14.55)"/><path class="i" d="M75.2,108.3H16.7A11.7,11.7,0,0,1,5,96.6V14.7A11.7,11.7,0,0,1,16.7,3H57.651L86.9,32.25V96.6A11.7,11.7,0,0,1,75.2,108.3Z" transform="translate(24.25 14.55)"/><path class="i" d="M14.85,13,9,24.7l5.85,11.7" transform="translate(43.651 63.051)"/><path class="i" d="M14,13l5.85,11.7L14,36.4" transform="translate(67.901 63.051)"/></g><g transform="translate(1353.911 777.428)"><path class="j" d="M0,0H140.4V140.4H0Z"/><ellipse class="i" cx="54.714" cy="50.967" rx="54.714" ry="50.967" transform="translate(15.482 19.156)"/><ellipse class="i" cx="19.487" cy="17.988" rx="19.487" ry="17.988" transform="translate(51.458 53.633)"/><line class="i" x2="49.141" transform="translate(70.201 52.651)"/><line class="i" x2="49.141" transform="translate(85.4 78.976) rotate(120)"/><line class="i" x2="49.141" transform="translate(55.002 78.976) rotate(-120)"/></g><g transform="translate(1601.749 481.775)"><path class="j" d="M0,0H140.4V140.4H0Z"/><path class="i" d="M9.029,29.257A52.651,52.651,0,1,0,84.044,9.367C74.473,3.4,66.12,3.4,55.665,3.4H46.03" transform="translate(14.535 16.49)"/><path class="i" d="M9.686,41.539c-10.273-9.179-4.709-31.473.638-36.095.5,5.242,3.422,7.067,6.5,9.857,5.148-1.609,7.681-1.65,10.922,0,4.8-5.324,9.91-13.771,15.374-12.244-6.33,10.185-.41,21.838,8.02,24.412-.995,5.7-8.682,11.191-16.146,15.713-7.582,5.487-4.224,10.823,0,13.069,5.552,2.96,21.125-5.821,26.589,2.071-9.933.6-8.986,18.176-23.3,15.953,14.76,5.6,25.419,2.7,31.93-1.989,11.5-8.892,16.842-20.721,16.842-32.509-.082-8.178,1.135-15.766-7.371-27.788" transform="translate(19.061 13.949)"/></g><g transform="translate(5508.296 1780.048)"><path class="j" d="M0,0H140.884V140.884H0Z"/><rect class="i" width="105" height="82" rx="2" transform="translate(18 30.108)"/><path class="i" d="M3,7,55.832,42.221,108.663,7" transform="translate(14.611 34.091)"/></g><g transform="translate(5657.336 1428.622)"><path class="j" d="M0,0H140.884V140.884H0Z"/><path class="i" d="M110.226,3,72.07,108.663a3.229,3.229,0,0,1-5.87,0L45.654,67.572,4.563,47.026a3.229,3.229,0,0,1,0-5.87L110.226,3" transform="translate(13.048 14.611)"/></g><g transform="translate(5798.22 1130.697)"><path class="j" d="M0,0H140.884V140.884H0Z"/><rect class="i" width="35" height="64" rx="3" transform="translate(52.657 11.699)"/><path class="i" d="M5,10a41.091,41.091,0,0,0,82.182,0" transform="translate(24.351 48.702)"/><line class="i" x2="47" transform="translate(46.657 122.699)"/><line class="i" y2="23" transform="translate(70.657 99.699)"/></g><g transform="translate(6206.586 1467.863)"><path class="j" d="M0,0H140.884V140.884H0Z"/><line class="i" y2="0.059" transform="translate(105.663 35.221)"/><path class="i" d="M37.482,66.263,16.936,36.912a23.481,23.481,0,1,1,41.091,0L37.482,66.263" transform="translate(68.181 10.05)"/><path class="i" d="M47.026,8.4,38.221,4,3,21.611V97.923L38.221,80.312,73.442,97.923l35.221-17.611V68.572" transform="translate(14.611 19.481)"/><line class="i" y2="76" transform="translate(52.327 23.567)"/><line class="i" y2="30" transform="translate(87.327 87.567)"/></g><g transform="translate(6002.505 755.545)"><path class="j" d="M0,0H139.863V139.863H0Z"/><rect class="i" width="35" height="35" rx="1" transform="translate(23 23)"/><line class="i" y2="0.058" transform="translate(40.793 99.07)"/><rect class="i" width="35" height="35" rx="1" transform="translate(82 23)"/><line class="i" y2="0.058" transform="translate(40.793 40.793)"/><rect class="i" width="35" height="35" rx="1" transform="translate(23 82)"/><line class="i" y2="0.058" transform="translate(99.07 40.793)"/><line class="i" x2="17" transform="translate(82 82)"/><line class="i" y2="0.058" transform="translate(116.553 81.587)"/><line class="i" y2="17" transform="translate(82 82)"/><line class="i" x2="17" transform="translate(82 117)"/><line class="i" x2="18" transform="translate(99 99)"/><line class="i" y2="18" transform="translate(117 99)"/></g></g><g transform="translate(-211 79)"><text class="k" transform="translate(2643 1160)"><tspan x="0" y="0"></tspan><tspan x="-543.07" y="166">WEB DEVELOPMENT</tspan></text><text class="l" transform="translate(2316 1160)"><tspan x="0" y="0">FULL STACK</tspan></text></g><g transform="translate(241 79)"><text class="k" transform="translate(3658 1160)"><tspan x="0" y="0"></tspan><tspan x="-624.03" y="166">MOBILE DEVELOPMENT</tspan></text><text class="l" transform="translate(3134 1160)"><tspan x="0" y="0">CROSS-PLATFORM</tspan></text></g></g></svg>